<svg xmlns="http://www.w3.org/2000/svg" viewBox="0 0 512 512">
  <rect width="512" height="512" fill="#0ea5e9"/>
  <path d="M368 288h-16c-8.84 0-16-7.16-16-16v-16h-48v16c0 8.84-7.16 16-16 16h-16c-8.84 0-16-7.16-16-16v-16h-48v16c0 8.84-7.16 16-16 16h-16c-8.84 0-16-7.16-16-16V160c0-17.67 14.33-32 32-32h192c17.67 0 32 14.33 32 32v96c0 8.84-7.16 16-16 16zM112 160v96c0 8.84 7.16 16 16 16h16c8.84 0 16-7.16 16-16v-16h48v16c0 8.84 7.16 16 16 16h16c8.84 0 16-7.16 16-16v-96c0-17.67-14.33-32-32-32H144c-17.67 0-32 14.33-32 32zm352 160h-32v32c0 17.67-14.33 32-32 32H112c-17.67 0-32-14.33-32-32v-32H48c-17.67 0-32-14.33-32-32V128c0-17.67 14.33-32 32-32h32v-32c0-17.67 14.33-32 32-32h288c17.67 0 32 14.33 32 32v32h32c17.67 0 32 14.33 32 32v128c0 17.67-14.33 32-32 32z" fill="#ffffff" opacity="0.8"/>
  <text x="50%" y="420" text-anchor="middle" font-family="Arial" font-size="60" fill="white" font-weight="bold">FROTAS</text>
</svg>